<svg width="40" height="40" viewBox="0 0 40 40" fill="none" xmlns="http://www.w3.org/2000/svg">
<circle cx="20" cy="20" r="19.5" stroke="#DADADA"/>
<path d="M17.8284 13L15.8284 15H12V27H28V15H24.1716L22.1716 13H17.8284ZM17 11H23L25 13H29C29.5523 13 30 13.4477 30 14V28C30 28.5523 29.5523 29 29 29H11C10.4477 29 10 28.5523 10 28V14C10 13.4477 10.4477 13 11 13H15L17 11ZM17.6404 15.5304C18.3555 15.1903 19.1555 15 20 15C23.0376 15 25.5 17.4624 25.5 20.5C25.5 22.05 24.8588 23.4502 23.8273 24.4499L21.75 20.6H23.4986C23.4995 20.5668 23.5 20.5334 23.5 20.5C23.5 18.567 21.933 17 20 17C19.4912 17 19.0078 17.1086 18.5716 17.3038L17.6404 15.5304ZM22.3175 25.4894C21.6132 25.817 20.828 26 20 26C16.9624 26 14.5 23.5376 14.5 20.5C14.5 18.9678 15.1265 17.5819 16.1374 16.5846L18.25 20.5H16.5C16.5 22.433 18.067 24 20 24C20.4923 24 20.9608 23.8984 21.3857 23.715L22.3175 25.4894Z" fill="white"/>
</svg>
