<svg width="21" height="21" viewBox="0 0 21 21" fill="none" xmlns="http://www.w3.org/2000/svg">
<path d="M0.134201 11.6332C-0.0478689 10.5373 -0.0418589 9.43644 0.135081 8.37194C1.23629 8.39874 2.22666 7.87042 2.61158 6.94115C2.99649 6.01188 2.66977 4.93801 1.87219 4.17825C2.49978 3.30042 3.27397 2.51772 4.17763 1.87155C4.93743 2.6696 6.01163 2.9966 6.94115 2.61158C7.87067 2.22656 8.39905 1.23576 8.37195 0.1342C9.46785 -0.0478701 10.5688 -0.0418601 11.6333 0.13509C11.6065 1.23629 12.1349 2.22666 13.0641 2.61158C13.9934 2.9965 15.0673 2.66977 15.827 1.87219C16.7049 2.49978 17.4876 3.27397 18.1337 4.17764C17.3357 4.93743 17.0087 6.01163 17.3937 6.94115C17.7787 7.87067 18.7695 8.39904 19.8711 8.37194C20.0531 9.46784 20.0471 10.5687 19.8702 11.6332C18.769 11.6065 17.7786 12.1348 17.3937 13.064C17.0088 13.9933 17.3355 15.0672 18.1331 15.8269C17.5055 16.7048 16.7313 17.4875 15.8276 18.1336C15.0678 17.3356 13.9936 17.0086 13.0641 17.3936C12.1346 17.7786 11.6063 18.7694 11.6333 19.871C10.5374 20.0531 9.43645 20.0471 8.37195 19.8701C8.39875 18.7689 7.87042 17.7785 6.94115 17.3936C6.01188 17.0087 4.938 17.3354 4.17825 18.133C3.30042 17.5054 2.51772 16.7312 1.87155 15.8276C2.6696 15.0678 2.9966 13.9936 2.61158 13.064C2.22656 12.1345 1.23576 11.6062 0.134201 11.6332ZM10.0027 13.0026C11.6595 13.0026 13.0027 11.6594 13.0027 10.0026C13.0027 8.34574 11.6595 7.00262 10.0027 7.00262C8.34575 7.00262 7.00261 8.34574 7.00261 10.0026C7.00261 11.6594 8.34575 13.0026 10.0027 13.0026Z" fill="#999999"/>
</svg>
